<svg xmlns="http://www.w3.org/2000/svg" xmlns:xlink="http://www.w3.org/1999/xlink" width="55" height="60" viewBox="0 0 30 32" version="1.1">
    <g id="surface1">
        <path style=" stroke:none;fill-rule:evenodd;fill:rgb(0%,0%,0%);fill-opacity:1;" d="M 14.078125 13.707031 L 14.472656 13.746094 L 14.476562 13.746094 C 14.335938 13.722656 14.207031 13.703125 14.078125 13.707031 Z M 13.859375 16.0625 C 13.589844 15.953125 13.371094 15.578125 13.371094 15.578125 C 13.371094 15.578125 13.953125 15.570312 15 15.570312 C 16.042969 15.570312 16.628906 15.578125 16.628906 15.578125 C 16.628906 15.578125 16.40625 15.953125 16.136719 16.0625 C 15.867188 16.175781 15.355469 16.265625 15 16.265625 C 14.644531 16.265625 14.132812 16.175781 13.859375 16.0625 Z M 5.578125 31.511719 L 5.578125 19.867188 L 24.417969 19.867188 L 24.417969 31.511719 Z M 5.578125 31.511719 "/>
        <path style=" stroke:none;fill-rule:evenodd;fill:rgb(0%,0%,0%);fill-opacity:1;" d="M 13.992188 0.460938 C 13.59375 0.519531 12.945312 0.671875 12.546875 0.800781 C 12.152344 0.929688 11.429688 1.285156 10.945312 1.59375 C 10.460938 1.902344 9.722656 2.492188 9.3125 2.90625 C 8.898438 3.320312 8.3125 4.015625 8.007812 4.453125 C 7.707031 4.886719 7.265625 5.625 7.027344 6.085938 C 6.789062 6.546875 6.363281 7.570312 6.085938 8.351562 C 5.804688 9.136719 5.449219 10.390625 5.296875 11.136719 C 5.109375 12.039062 5.015625 13.027344 5.015625 14.070312 C 5.019531 15.230469 5.089844 15.820312 5.277344 16.332031 C 5.421875 16.714844 5.574219 17.121094 5.625 17.234375 C 5.691406 17.390625 5.429688 17.574219 4.59375 17.960938 C 3.902344 18.28125 3.144531 18.777344 2.617188 19.253906 C 2.148438 19.679688 1.566406 20.363281 1.332031 20.765625 C 1.09375 21.171875 0.773438 21.988281 0.621094 22.578125 C 0.382812 23.488281 0.339844 24.117188 0.339844 26.613281 L 0.339844 29.570312 L 4.585938 29.570312 L 4.621094 24.269531 L 4.660156 18.96875 L 9.832031 18.96875 L 9.441406 18.695312 C 9.226562 18.542969 8.683594 18.082031 8.238281 17.671875 C 7.792969 17.257812 7.265625 16.605469 7.070312 16.21875 C 6.851562 15.792969 6.710938 15.28125 6.710938 14.914062 C 6.710938 14.578125 6.84375 14.054688 7.011719 13.730469 C 7.175781 13.410156 7.441406 13.003906 7.601562 12.832031 C 7.761719 12.664062 7.9375 12.523438 7.988281 12.523438 C 8.039062 12.523438 8.15625 12.679688 8.246094 12.875 C 8.339844 13.070312 8.410156 13.398438 8.410156 13.609375 C 8.410156 13.816406 8.527344 14.203125 8.664062 14.46875 C 8.804688 14.730469 9.464844 15.636719 10.132812 16.476562 C 11.082031 17.667969 11.519531 18.09375 12.113281 18.414062 C 12.863281 18.824219 12.90625 18.828125 15 18.828125 C 17.09375 18.828125 17.132812 18.824219 17.886719 18.414062 C 18.492188 18.085938 18.921875 17.660156 19.976562 16.335938 C 20.707031 15.417969 21.359375 14.484375 21.433594 14.253906 C 21.503906 14.027344 21.597656 13.617188 21.644531 13.34375 C 21.691406 13.070312 21.8125 12.738281 21.914062 12.601562 C 22.082031 12.378906 22.148438 12.425781 22.648438 13.136719 C 23.09375 13.769531 23.207031 14.066406 23.257812 14.71875 C 23.304688 15.375 23.25 15.648438 22.960938 16.203125 C 22.765625 16.582031 22.234375 17.234375 21.777344 17.652344 C 21.320312 18.074219 20.769531 18.542969 20.554688 18.695312 L 20.164062 18.96875 L 25.339844 18.96875 L 25.375 24.269531 L 25.414062 29.570312 L 29.660156 29.570312 L 29.660156 26.566406 C 29.660156 24.265625 29.605469 23.34375 29.429688 22.648438 C 29.304688 22.148438 29.003906 21.363281 28.761719 20.90625 C 28.515625 20.449219 27.992188 19.757812 27.589844 19.371094 C 27.191406 18.984375 26.585938 18.511719 26.242188 18.316406 C 25.902344 18.125 25.316406 17.855469 24.941406 17.71875 C 24.417969 17.527344 24.285156 17.417969 24.363281 17.246094 C 24.417969 17.125 24.582031 16.691406 24.730469 16.28125 C 24.933594 15.722656 25 15.152344 25 14.054688 C 25 13.109375 24.898438 12.074219 24.710938 11.179688 C 24.550781 10.410156 24.191406 9.136719 23.910156 8.351562 C 23.632812 7.570312 23.210938 6.546875 22.972656 6.085938 C 22.734375 5.625 22.289062 4.886719 21.988281 4.453125 C 21.683594 4.015625 21.097656 3.320312 20.6875 2.90625 C 20.273438 2.492188 19.527344 1.894531 19.03125 1.582031 C 18.535156 1.265625 17.710938 0.890625 17.199219 0.746094 C 16.691406 0.601562 15.921875 0.453125 15.496094 0.417969 C 15.066406 0.382812 14.390625 0.402344 13.992188 0.460938 Z M 10.679688 11.230469 C 10.679688 11.597656 10.785156 11.855469 11.058594 12.132812 C 11.402344 12.480469 11.535156 12.523438 12.375 12.523438 L 13.308594 12.523438 L 14.148438 11.691406 L 14.992188 10.859375 L 15.847656 11.691406 L 16.707031 12.523438 L 17.632812 12.523438 C 18.460938 12.523438 18.597656 12.480469 18.9375 12.132812 C 19.210938 11.855469 19.320312 11.597656 19.320312 11.230469 C 19.320312 10.949219 19.308594 10.71875 19.308594 10.71875 C 19.308594 10.71875 19.773438 10.828125 20.015625 10.960938 C 20.285156 11.113281 20.449219 11.316406 20.453125 11.5 C 20.453125 11.664062 20.363281 11.867188 20.253906 11.953125 C 20.148438 12.042969 20.011719 12.472656 19.957031 12.90625 C 19.875 13.570312 19.738281 13.851562 19.132812 14.632812 C 18.679688 15.210938 18.398438 15.753906 18.398438 15.753906 C 18.398438 15.753906 18.257812 15.160156 18.1875 14.976562 C 18.128906 14.816406 18.089844 14.546875 17.976562 14.328125 C 17.847656 14.089844 17.582031 13.875 17.304688 13.792969 C 17.097656 13.730469 16.894531 13.710938 16.0625 13.707031 C 15.777344 13.71875 15.304688 13.792969 14.96875 13.792969 C 14.792969 13.792969 14.632812 13.769531 14.480469 13.746094 L 14.472656 13.746094 L 14.078125 13.707031 C 13.015625 13.707031 12.617188 13.75 12.28125 14.078125 C 12.011719 14.34375 11.871094 14.648438 11.820312 15.105469 L 11.742188 15.753906 L 10.941406 14.726562 C 10.277344 13.875 10.125 13.570312 10.039062 12.9375 C 9.980469 12.519531 9.847656 12.050781 9.738281 11.902344 C 9.632812 11.75 9.546875 11.527344 9.546875 11.40625 C 9.546875 11.285156 9.753906 11.085938 10.003906 10.960938 C 10.257812 10.839844 10.679688 10.726562 10.679688 10.726562 Z M 17.300781 15.828125 C 17.136719 15.445312 16.871094 15.046875 16.710938 14.945312 C 16.546875 14.84375 16 14.730469 15.496094 14.691406 C 14.988281 14.65625 14.320312 14.667969 14.007812 14.722656 C 13.695312 14.773438 13.355469 14.871094 13.25 14.933594 C 13.144531 15 12.9375 15.308594 12.792969 15.621094 C 12.644531 15.9375 12.523438 16.308594 12.523438 16.445312 C 12.519531 16.605469 12.734375 16.789062 13.121094 16.960938 C 13.566406 17.160156 14.046875 17.230469 14.96875 17.230469 C 15.765625 17.234375 16.394531 17.160156 16.726562 17.023438 C 17.011719 16.90625 17.324219 16.75 17.421875 16.667969 C 17.558594 16.554688 17.535156 16.378906 17.300781 15.828125 Z M 17.300781 15.828125 "/>
    </g>
</svg>